<?xml version="1.0" encoding="UTF-8"?>
<svg version="1.1" xmlns="http://www.w3.org/2000/svg" width="111" height="111">
<path d="M0 0 C13.9606371 8.9810468 23.11111733 21.74953115 26.6875 38.125 C28.17828214 56.44825469 25.49131667 71.33937423 13.50390625 85.75 C3.8556599 96.14285649 -9.29061047 103.8365379 -23.6796875 104.55859375 C-25.51547697 104.58194399 -27.35167425 104.58279783 -29.1875 104.5625 C-30.15204102 104.55492676 -31.11658203 104.54735352 -32.11035156 104.53955078 C-45.625768 104.22751639 -57.49099449 99.13083244 -67.52734375 89.99609375 C-80.67678901 76.21363362 -84.8531359 61.93771216 -84.5859375 43.48046875 C-84.07210806 28.93807797 -77.17253423 17.07195948 -66.76171875 7.19140625 C-47.71389383 -8.87924667 -21.91983178 -12.41361561 0 0 Z " fill="#8CB1B6" transform="translate(84.3125,6.875)"/>
<path d="M0 0 C13.86 0.99 13.86 0.99 28 2 C28 2.33 28 2.66 28 3 C28.91523438 3.04898438 29.83046875 3.09796875 30.7734375 3.1484375 C31.96195313 3.22320312 33.15046875 3.29796875 34.375 3.375 C36.15003906 3.47941406 36.15003906 3.47941406 37.9609375 3.5859375 C41 4 41 4 43 6 C42.34 6 41.68 6 41 6 C41.06900513 6.86165771 41.06900513 6.86165771 41.1394043 7.74072266 C41.33975739 10.36780956 41.51381916 12.99602052 41.6875 15.625 C41.76033203 16.52863281 41.83316406 17.43226562 41.90820312 18.36328125 C42.24157219 23.7364061 42.15703096 27.38192448 39 32 C36.4375 33.6875 36.4375 33.6875 34 35 C33.34 35.99 32.68 36.98 32 38 C36.95 37.505 36.95 37.505 42 37 C41.34 40.96 40.68 44.92 40 49 C36 47 36 47 35 45 C34.67 45.99 34.34 46.98 34 48 C21.57989349 44.34488813 12.6158967 34.83513796 6.1796875 23.91015625 C1.87790567 15.6702698 0 9.4058434 0 0 Z " fill="#8CB3BA" transform="translate(0,59)"/>
<path d="M0 0 C2.5625 0.5 2.5625 0.5 4.234375 2.59765625 C5.88406333 6.20271045 5.73767348 8.50782616 5.375 12.4375 C5.27832031 13.62214844 5.18164062 14.80679688 5.08203125 16.02734375 C4.41474899 20.48759885 3.80993897 24.25256103 0.5625 27.5 C0.28422748 30.1215642 0.28422748 30.1215642 0.3671875 33.1640625 C0.37363281 34.28554687 0.38007812 35.40703125 0.38671875 36.5625 C0.40347656 37.738125 0.42023438 38.91375 0.4375 40.125 C0.44652344 41.30835938 0.45554687 42.49171875 0.46484375 43.7109375 C0.48847095 46.64071057 0.52434287 49.57038014 0.5625 52.5 C7.1625 52.5 13.7625 52.5 20.5625 52.5 C10.99724207 63.65946759 1.07755716 71.00817021 -13.4375 74.5 C-14.7575 74.5 -16.0775 74.5 -17.4375 74.5 C-17.4375 64.27 -17.4375 54.04 -17.4375 43.5 C-15.20040687 46.8556397 -15.01713048 48.7303592 -14.5625 52.6875 C-13.76549641 58.4336388 -12.36628548 62.52106468 -9.4375 67.5 C-9.36805755 66.10149502 -9.36805755 66.10149502 -10.8125 63.5 C-13.78931544 56.6011244 -14.70908864 49.96868747 -14.4375 42.5 C-12.4375 45.5 -12.4375 45.5 -11.5 47.625 C-10.51841355 49.84495729 -10.51841355 49.84495729 -7.4375 50.5 C-7.4375 49.51 -7.4375 48.52 -7.4375 47.5 C-6.7775 47.83 -6.1175 48.16 -5.4375 48.5 C-5.85322266 47.43072266 -5.85322266 47.43072266 -6.27734375 46.33984375 C-8.27750457 41.0511623 -10.06808738 36.16432684 -10.4375 30.5 C-10.1075 30.17 -9.7775 29.84 -9.4375 29.5 C-9.35118126 28.15732587 -9.33043527 26.81025678 -9.33984375 25.46484375 C-9.34306641 24.65595703 -9.34628906 23.84707031 -9.34960938 23.01367188 C-9.35798828 22.16353516 -9.36636719 21.31339844 -9.375 20.4375 C-9.37951172 19.58349609 -9.38402344 18.72949219 -9.38867188 17.84960938 C-9.40049627 15.73304337 -9.41843231 13.61651315 -9.4375 11.5 C-8.79039063 11.23058594 -8.14328125 10.96117187 -7.4765625 10.68359375 C-6.80367187 10.29300781 -6.13078125 9.90242188 -5.4375 9.5 C-4.76632152 6.55636102 -4.76632152 6.55636102 -4.4375 3.5 C-2.4375 0.5 -2.4375 0.5 0 0 Z " fill="#53595E" transform="translate(79.4375,36.5)"/>
<path d="M0 0 C0.87011719 0.00451172 1.74023438 0.00902344 2.63671875 0.01367188 C4.75784293 0.0253264 6.8789311 0.04325643 9 0.0625 C9.55805883 9.53399848 8.43909702 17.22546753 5 26.0625 C4.71511719 27.06539062 4.43023437 28.06828125 4.13671875 29.1015625 C2.81357735 32.51767301 2.05407487 33.97577916 -1 36.0625 C-7.90425754 37.29793773 -15.05214583 36.66416603 -22 36.0625 C-22.64036232 29.71605203 -23.10666523 23.37839745 -23.25 17 C-23.27578125 15.93652344 -23.3015625 14.87304688 -23.328125 13.77734375 C-22.94827378 10.63452715 -22.3086773 10.07608321 -20 8.0625 C-19.25613932 5.75261685 -18.57809297 3.41934056 -18 1.0625 C-11.95180188 0.17347088 -6.10776514 -0.06098383 0 0 Z " fill="#8AB1B8" transform="translate(102,52.9375)"/>
<path d="M0 0 C2.5625 0.1875 2.5625 0.1875 4.5625 2.1875 C4.6875 4.8125 4.6875 4.8125 4.5625 7.1875 C5.5525 4.8775 6.5425 2.5675 7.5625 0.1875 C10.0375 0.6825 10.0375 0.6825 12.5625 1.1875 C12.61720352 2.89546558 12.65560718 4.60395625 12.6875 6.3125 C12.71070312 7.26382813 12.73390625 8.21515625 12.7578125 9.1953125 C12.5625 12.1875 12.5625 12.1875 11.55859375 14.8515625 C10.10574615 19.71717759 10.39285506 24.39194753 10.5 29.4375 C10.62948908 36.77521431 10.47013672 43.89832466 9.5625 51.1875 C0.99575085 51.52078851 -6.38823076 51.30334616 -14.4375 48.1875 C-14.4375 46.5375 -14.4375 44.8875 -14.4375 43.1875 C-11.9625 45.1675 -11.9625 45.1675 -9.4375 47.1875 C-9.128125 45.929375 -8.81875 44.67125 -8.5 43.375 C-7.89771952 40.92572606 -7.23661359 38.58484077 -6.4375 36.1875 C-7.51 36.538125 -8.5825 36.88875 -9.6875 37.25 C-14.36057692 38.41826923 -14.36057692 38.41826923 -17.4375 37.1875 C-13.82421875 32.5 -13.82421875 32.5 -12.4375 31.1875 C-11.4475 31.1875 -10.4575 31.1875 -9.4375 31.1875 C-7.33321616 26.05830814 -7.21994334 21.6264165 -7.4375 16.1875 C-6.65375 16.043125 -5.87 15.89875 -5.0625 15.75 C-2.47328982 15.30951075 -2.47328982 15.30951075 -0.4375 14.1875 C-0.4375 12.2075 -0.4375 10.2275 -0.4375 8.1875 C-1.4275 7.8575 -2.4175 7.5275 -3.4375 7.1875 C-3.48004356 5.18795254 -3.47830783 3.18708364 -3.4375 1.1875 C-2.4375 0.1875 -2.4375 0.1875 0 0 Z " fill="#968E82" transform="translate(48.4375,59.8125)"/>
<path d="M0 0 C3.87909417 1.47138055 5.01056241 3.45361125 7 7 C7.52078125 7.40992188 8.0415625 7.81984375 8.578125 8.2421875 C10.75931104 10.93870871 10.28833667 13.29266555 10.1875 16.6875 C10.16042969 17.86699219 10.13335937 19.04648438 10.10546875 20.26171875 C10.07066406 21.16535156 10.03585938 22.06898437 10 23 C10.66 23 11.32 23 12 23 C12.66 21.68 13.32 20.36 14 19 C14.66 19 15.32 19 16 19 C16.2475 19.78375 16.495 20.5675 16.75 21.375 C18.08025362 25.23273551 19.61281113 28.97058411 21.1953125 32.73046875 C22 35 22 35 22 38 C21.01 38.495 21.01 38.495 20 39 C20 39.99 20 40.98 20 42 C15.125 38.375 15.125 38.375 14 35 C14.45651234 43.42186551 15.03704303 52.46914237 21 59 C17.64189375 57.57385864 16.97101113 56.95481146 14.875 53.6875 C13 49 13 49 11 36 C10.67 45.24 10.34 54.48 10 64 C8.68 64 7.36 64 6 64 C5.97525318 59.08870815 5.95711777 54.17745273 5.94506836 49.26611328 C5.94004431 47.59585945 5.93322395 45.92561001 5.92456055 44.25537109 C5.91241054 41.85252804 5.90675237 39.44974321 5.90234375 37.046875 C5.89718246 36.30193787 5.89202118 35.55700073 5.88670349 34.78948975 C5.88633636 31.38497809 5.92669082 28.25335241 7 25 C7.66 25 8.32 25 9 25 C8.67 21.37 8.34 17.74 8 14 C6.68 14 5.36 14 4 14 C3.67 15.98 3.34 17.96 3 20 C2.01 20.33 1.02 20.66 0 21 C0.0309375 19.5459375 0.0309375 19.5459375 0.0625 18.0625 C0.35618499 15.12534105 0.35618499 15.12534105 -1 14 C-2.66617115 13.95936168 -4.33388095 13.957279 -6 14 C-6.33 15.98 -6.66 17.96 -7 20 C-5.68 20.33 -4.36 20.66 -3 21 C-3 22.98 -3 24.96 -3 27 C-4.96466413 28.06775224 -6.96855359 29.06553465 -9 30 C-9.66 29.67 -10.32 29.34 -11 29 C-11.05425226 26.60385874 -11.09379027 24.20896147 -11.125 21.8125 C-11.14175781 21.13896484 -11.15851562 20.46542969 -11.17578125 19.77148438 C-11.22829601 14.38872146 -10.53134072 10.82772925 -7.0625 6.6875 C-5 5 -5 5 -2 5 C-1.34 3.35 -0.68 1.7 0 0 Z " fill="#A29A8C" transform="translate(52,47)"/>
<path d="M0 0 C2.23709313 3.3556397 2.42036952 5.2303592 2.875 9.1875 C3.69275638 14.95686784 4.92290583 19.05800028 8 24 C8.99 24.66 9.98 25.32 11 26 C13.26616615 19.74538144 14.83795007 13.54849313 16 7 C16.33 7.66 16.66 8.32 17 9 C23.93 9 30.86 9 38 9 C28.43474207 20.15946759 18.51505716 27.50817021 4 31 C2.68 31 1.36 31 0 31 C0 20.77 0 10.54 0 0 Z " fill="#7DA6AC" transform="translate(62,80)"/>
<path d="M0 0 C1.65 0 3.3 0 5 0 C5 1.98 5 3.96 5 6 C7.31 7.32 9.62 8.64 12 10 C11.67 18.25 11.34 26.5 11 35 C2 35 2 35 -2.5 33.5 C-3.3559375 33.2215625 -4.211875 32.943125 -5.09375 32.65625 C-5.7228125 32.4396875 -6.351875 32.223125 -7 32 C-7 30.35 -7 28.7 -7 27 C-4.525 28.98 -4.525 28.98 -2 31 C-1.690625 29.741875 -1.38125 28.48375 -1.0625 27.1875 C-0.46021952 24.73822606 0.20088641 22.39734077 1 20 C-0.0725 20.350625 -1.145 20.70125 -2.25 21.0625 C-6.92307692 22.23076923 -6.92307692 22.23076923 -10 21 C-6.38671875 16.3125 -6.38671875 16.3125 -5 15 C-4.01 15 -3.02 15 -2 15 C0.10428384 9.87080814 0.21755666 5.4389165 0 0 Z " fill="#837C73" transform="translate(41,76)"/>
<path d="M0 0 C-1.57739236 7.74356251 -4.61538692 14.42308038 -9 21 C-11.15478516 21.34057617 -11.15478516 21.34057617 -13.7890625 21.29296875 C-14.73007813 21.28330078 -15.67109375 21.27363281 -16.640625 21.26367188 C-18.11789063 21.2259668 -18.11789063 21.2259668 -19.625 21.1875 C-21.11386719 21.16719727 -21.11386719 21.16719727 -22.6328125 21.14648438 C-25.08908072 21.11105743 -27.54427285 21.06166196 -30 21 C-30.1328125 14.234375 -30.1328125 14.234375 -28.9375 12.125 C-27 11 -27 11 -23.4375 10.5 C-22.303125 10.335 -21.16875 10.17 -20 10 C-19.34 9.01 -18.68 8.02 -18 7 C-15.69 7.33 -13.38 7.66 -11 8 C-10.95875 7.4225 -10.9175 6.845 -10.875 6.25 C-8.9895726 1.40175812 -4.85866458 0 0 0 Z " fill="#E2C9A2" transform="translate(110,68)"/>
<path d="M0 0 C2.33524782 2.25740623 4.18705073 4.2805761 6 7 C6.928125 5.7934375 6.928125 5.7934375 7.875 4.5625 C10 2 10 2 12 1 C13.70702735 0.93003986 15.41668003 0.91559846 17.125 0.9375 C18.03507812 0.94652344 18.94515625 0.95554687 19.8828125 0.96484375 C20.93082031 0.98224609 20.93082031 0.98224609 22 1 C22.33 1.99 22.66 2.98 23 4 C24.65 3.34 26.3 2.68 28 2 C27.39294514 6.12797305 26.06000669 9.37438822 24 13 C23.01 13.495 23.01 13.495 22 14 C21.67 14.99 21.34 15.98 21 17 C18.58063683 17.16249454 16.17218141 17.28097817 13.75 17.375 C13.06808594 17.42527344 12.38617188 17.47554687 11.68359375 17.52734375 C9.671875 17.5859375 9.671875 17.5859375 6 17 C2 12.33333333 2 12.33333333 2 9 C1.34 9 0.68 9 0 9 C-0.33 9.66 -0.66 10.32 -1 11 C-0.67 9.68 -0.34 8.36 0 7 C0.66 7 1.32 7 2 7 C1.65555119 4.52733235 1.65555119 4.52733235 1 2 C0.34 1.67 -0.32 1.34 -1 1 C-0.67 0.67 -0.34 0.34 0 0 Z " fill="#9F996E" transform="translate(40,19)"/>
<path d="M0 0 C4.62 0 9.24 0 14 0 C14 0.33 14 0.66 14 1 C11.69 1.33 9.38 1.66 7 2 C14.425 2.99 14.425 2.99 22 4 C22 4.33 22 4.66 22 5 C24.31 5.33 26.62 5.66 29 6 C29 6.33 29 6.66 29 7 C30.98 7.33 32.96 7.66 35 8 C34.01 10.64 33.02 13.28 32 16 C26.06 16 20.12 16 14 16 C14 15.67 14 15.34 14 15 C7.07 14.34 0.14 13.68 -7 13 C-7 12.67 -7 12.34 -7 12 C7.85 11.505 7.85 11.505 23 11 C20.69 10.67 18.38 10.34 16 10 C13.19921875 9.1328125 13.19921875 9.1328125 10.6875 8.125 C9.84574219 7.79757813 9.00398438 7.47015625 8.13671875 7.1328125 C6 6 6 6 4 3 C1.94996045 1.80767387 1.94996045 1.80767387 0 1 C0 0.67 0 0.34 0 0 Z " fill="#7CA4AA" transform="translate(9,47)"/>
<path d="M0 0 C0.66 0.33 1.32 0.66 2 1 C2.33 7.27 2.66 13.54 3 20 C2.01 20.33 1.02 20.66 0 21 C0.0309375 19.5459375 0.0309375 19.5459375 0.0625 18.0625 C0.35618499 15.12534105 0.35618499 15.12534105 -1 14 C-2.66617115 13.95936168 -4.33388095 13.957279 -6 14 C-6.33 15.98 -6.66 17.96 -7 20 C-5.68 20.33 -4.36 20.66 -3 21 C-3 22.98 -3 24.96 -3 27 C-4.96466413 28.06775224 -6.96855359 29.06553465 -9 30 C-9.66 29.67 -10.32 29.34 -11 29 C-11.05425226 26.60385874 -11.09379027 24.20896147 -11.125 21.8125 C-11.14175781 21.13896484 -11.15851562 20.46542969 -11.17578125 19.77148438 C-11.22829601 14.38872146 -10.53134072 10.82772925 -7.0625 6.6875 C-5 5 -5 5 -2 5 C-1.34 3.35 -0.68 1.7 0 0 Z " fill="#BEB5A5" transform="translate(52,47)"/>
<path d="M0 0 C3.35744848 1.26836942 3.36549725 1.97556079 4.8125 5.0625 C7.16617713 5.7503236 7.16617713 5.7503236 9.8125 6.0625 C10.575625 6.3925 11.33875 6.7225 12.125 7.0625 C15.68858589 8.38848545 19.03176552 8.67801853 22.8125 9.0625 C22.4825 9.7225 22.1525 10.3825 21.8125 11.0625 C11.2525 11.0625 0.6925 11.0625 -10.1875 11.0625 C-10.1875 9.0825 -10.1875 7.1025 -10.1875 5.0625 C-9.5275 5.0625 -8.8675 5.0625 -8.1875 5.0625 C-7.445 4.216875 -6.7025 3.37125 -5.9375 2.5 C-3.1875 0.0625 -3.1875 0.0625 0 0 Z " fill="#D4B481" transform="translate(10.1875,47.9375)"/>
<path d="M0 0 C2.5625 0.1875 2.5625 0.1875 4.5625 2.1875 C4.6875 4.8125 4.6875 4.8125 4.5625 7.1875 C5.5525 4.8775 6.5425 2.5675 7.5625 0.1875 C9.2125 0.5175 10.8625 0.8475 12.5625 1.1875 C12.58946365 2.97908489 12.60887917 4.77078473 12.625 6.5625 C12.63660156 7.56023437 12.64820312 8.55796875 12.66015625 9.5859375 C12.5625 12.1875 12.5625 12.1875 11.5625 14.1875 C10.5725 14.1875 9.5825 14.1875 8.5625 14.1875 C8.5625 13.5275 8.5625 12.8675 8.5625 12.1875 C6.5825 12.1875 4.6025 12.1875 2.5625 12.1875 C1.9025 14.1675 1.2425 16.1475 0.5625 18.1875 C0.2325 17.5275 -0.0975 16.8675 -0.4375 16.1875 C-1.0975 15.8575 -1.7575 15.5275 -2.4375 15.1875 C-1.7775 14.8575 -1.1175 14.5275 -0.4375 14.1875 C-0.4375 12.2075 -0.4375 10.2275 -0.4375 8.1875 C-1.4275 7.8575 -2.4175 7.5275 -3.4375 7.1875 C-3.48004356 5.18795254 -3.47830783 3.18708364 -3.4375 1.1875 C-2.4375 0.1875 -2.4375 0.1875 0 0 Z " fill="#747069" transform="translate(48.4375,59.8125)"/>
<path d="M0 0 C2.625 0.125 2.625 0.125 5.625 1.125 C7.275 1.125 8.925 1.125 10.625 1.125 C8.975 4.095 7.325 7.065 5.625 10.125 C-1.305 10.125 -8.235 10.125 -15.375 10.125 C-15.375 9.465 -15.375 8.805 -15.375 8.125 C-14.323125 7.898125 -13.27125 7.67125 -12.1875 7.4375 C-8.20672145 6.32320499 -6.09271064 4.24237397 -3.375 1.125 C-2.375 0.125 -2.375 0.125 0 0 Z " fill="#D4B481" transform="translate(95.375,78.875)"/>
<path d="M0 0 C0.16391069 7.86771307 -0.64208058 15.24046047 -2 23 C-3.32 23.33 -4.64 23.66 -6 24 C-6.66 22.35 -7.32 20.7 -8 19 C-7.01 19.33 -6.02 19.66 -5 20 C-5.27714844 19.28714844 -5.55429688 18.57429688 -5.83984375 17.83984375 C-7.84918447 12.52688947 -9.49637281 7.66580592 -10 2 C-9.67 2.66 -9.34 3.32 -9 4 C-8.34 4 -7.68 4 -7 4 C-7 3.34 -7 2.68 -7 2 C-1.125 0 -1.125 0 0 0 Z " fill="#5C646A" transform="translate(79,65)"/>
<path d="M0 0 C2.23709313 3.3556397 2.42036952 5.2303592 2.875 9.1875 C3.97533017 16.90700385 5.94961599 22.81395656 12 28 C10.75336669 28.50833591 9.50250613 29.00631145 8.25 29.5 C7.55390625 29.7784375 6.8578125 30.056875 6.140625 30.34375 C4 31 4 31 0 31 C0 20.77 0 10.54 0 0 Z " fill="#464646" transform="translate(62,80)"/>
<path d="M0 0 C2 1 2 1 2.9375 2.9375 C3.95345922 5.31971493 3.95345922 5.31971493 7 7 C7 7.66 7 8.32 7 9 C7.66 9 8.32 9 9 9 C9.33 8.34 9.66 7.68 10 7 C10 16.24 10 25.48 10 35 C8.68 35 7.36 35 6 35 C6 26.75 6 18.5 6 10 C2.535 8.02 2.535 8.02 -1 6 C-1.042721 4.33388095 -1.04063832 2.66617115 -1 1 C-0.67 0.67 -0.34 0.34 0 0 Z " fill="#A8A091" transform="translate(46,76)"/>
<path d="M0 0 C0.33 0 0.66 0 1 0 C1 5.94 1 11.88 1 18 C-7 18 -7 18 -10 17 C-10.31563182 11.73946963 -9.66590937 8.55426184 -7 4 C-6.01 4.66 -5.02 5.32 -4 6 C-2.68 6 -1.36 6 0 6 C0 4.02 0 2.04 0 0 Z " fill="#736F69" transform="translate(51,93)"/>
<path d="M0 0 C5.52677733 -0.19392201 9.75614911 0.2520497 15 2 C10.74220074 7.79394645 6.42306336 10.78846832 0 14 C0 9.38 0 4.76 0 0 Z " fill="#89B1B7" transform="translate(81,91)"/>
<path d="M0 0 C2.64 1.32 5.28 2.64 8 4 C7 6 7 6 5.0625 6.75 C4.381875 7.1625 3.70125 7.575 3 8 C2.773125 8.99 2.54625 9.98 2.3125 11 C1 14 1 14 -0.98046875 14.87109375 C-4.99728606 15.82123814 -8.00901012 16.24832332 -12 15 C-8.38671875 10.3125 -8.38671875 10.3125 -7 9 C-6.01 9 -5.02 9 -4 9 C-3.71125 8.071875 -3.4225 7.14375 -3.125 6.1875 C-2 3 -2 3 0 0 Z " fill="#888176" transform="translate(43,82)"/>
<path d="M0 0 C2.33524782 2.25740623 4.18705073 4.2805761 6 7 C6.99 6.01 7.98 5.02 9 4 C8.95875 5.093125 8.9175 6.18625 8.875 7.3125 C8.67925334 11.08892229 8.67925334 11.08892229 11 14 C11.66 14 12.32 14 13 14 C13.33 13.34 13.66 12.68 14 12 C15.32 12.66 16.64 13.32 18 14 C18.33 13.34 18.66 12.68 19 12 C19 13.32 19 14.64 19 16 C19.66 16.33 20.32 16.66 21 17 C18.58063683 17.16249454 16.17218141 17.28097817 13.75 17.375 C13.06808594 17.42527344 12.38617188 17.47554687 11.68359375 17.52734375 C9.671875 17.5859375 9.671875 17.5859375 6 17 C2 12.33333333 2 12.33333333 2 9 C1.34 9 0.68 9 0 9 C-0.33 9.66 -0.66 10.32 -1 11 C-0.67 9.68 -0.34 8.36 0 7 C0.66 7 1.32 7 2 7 C1.65555119 4.52733235 1.65555119 4.52733235 1 2 C0.34 1.67 -0.32 1.34 -1 1 C-0.67 0.67 -0.34 0.34 0 0 Z " fill="#A1711D" transform="translate(40,19)"/>
<path d="M0 0 C-0.66 3.96 -1.32 7.92 -2 12 C-6 10 -6 10 -7 8 C-7.33 8.99 -7.66 9.98 -8 11 C-10.475 10.01 -10.475 10.01 -13 9 C-12.67 6.36 -12.34 3.72 -12 1 C-10.56274129 0.83126522 -9.12518162 0.66509263 -7.6875 0.5 C-6.88699219 0.4071875 -6.08648437 0.314375 -5.26171875 0.21875 C-3 0 -3 0 0 0 Z " fill="#BEB5A4" transform="translate(42,96)"/>
<path d="M0 0 C2.35119399 3.52679099 2.21443452 5.02879485 2.125 9.1875 C2.10695313 10.27417969 2.08890625 11.36085938 2.0703125 12.48046875 C2.03550781 13.72763672 2.03550781 13.72763672 2 15 C-0.84748981 16.20861197 -3.09043935 17.01063992 -6.1875 17.375 C-7.115625 17.58125 -8.04375 17.7875 -9 18 C-10.20086701 19.98453293 -10.20086701 19.98453293 -11 22 C-12.5056904 16.19233704 -13.21824777 11.0018137 -13 5 C-11 8 -11 8 -10.0625 10.0625 C-9.01748702 12.32261104 -9.01748702 12.32261104 -6 14 C-3.37468476 14.16713569 -3.37468476 14.16713569 -1 14 C-1.01160156 13.32453125 -1.02320312 12.6490625 -1.03515625 11.953125 C-1.04417969 11.06109375 -1.05320312 10.1690625 -1.0625 9.25 C-1.07410156 8.36828125 -1.08570312 7.4865625 -1.09765625 6.578125 C-1.00826198 4.2181162 -0.66912821 2.25501476 0 0 Z " fill="#404142" transform="translate(78,74)"/>
<path d="M0 0 C0.66 0.33 1.32 0.66 2 1 C2 12.88 2 24.76 2 37 C1.01 37 0.02 37 -1 37 C-1.0246826 32.05208706 -1.04285166 27.1042098 -1.05493164 22.15625 C-1.05996653 20.47232438 -1.06679481 18.78840314 -1.07543945 17.10449219 C-1.08754196 14.68683797 -1.09323668 12.26924144 -1.09765625 9.8515625 C-1.10281754 9.0963028 -1.10797882 8.34104309 -1.11329651 7.56289673 C-1.11387171 2.22774341 -1.11387171 2.22774341 0 0 Z " fill="#BFB6A5" transform="translate(59,74)"/>
<path d="M0 0 C3.57011026 3.732388 4.10913442 8.0949989 5 13 C4.01 13.495 4.01 13.495 3 14 C3 14.99 3 15.98 3 17 C-1.21581769 14.11549316 -2.85568726 11.99336468 -4 7 C-4 5.68 -4 4.36 -4 3 C-3.01 3.33 -2.02 3.66 -1 4 C-0.67 2.68 -0.34 1.36 0 0 Z " fill="#B9B0A0" transform="translate(69,72)"/>
<path d="M0 0 C0.66 0 1.32 0 2 0 C2.66 2.64 3.32 5.28 4 8 C5.32 8.33 6.64 8.66 8 9 C8 9.99 8 10.98 8 12 C7.34 12 6.68 12 6 12 C6 12.66 6 13.32 6 14 C1.25 15.125 1.25 15.125 -1 14 C-1.02685938 11.85423363 -1.04633088 9.70837355 -1.0625 7.5625 C-1.07410156 6.36753906 -1.08570312 5.17257813 -1.09765625 3.94140625 C-1 1 -1 1 0 0 Z " fill="#5B6368" transform="translate(71,47)"/>
<path d="M0 0 C0.99 0.66 1.98 1.32 3 2 C2.45564371 5.81049403 1.01129759 7.63979378 -2 10 C-3.9896995 10.39013716 -5.99019869 10.73202649 -8 11 C-8.33 11.66 -8.66 12.32 -9 13 C-9.33 10.36 -9.66 7.72 -10 5 C-7.69 5 -5.38 5 -3 5 C-3 4.34 -3 3.68 -3 3 C-1.5 1.375 -1.5 1.375 0 0 Z " fill="#464C53" transform="translate(80,56)"/>
<path d="M0 0 C4.11226858 3.63777605 7.43978963 8.15266837 10 13 C10 14.32 10 15.64 10 17 C7.6875 16.8125 7.6875 16.8125 5 16 C2 11.96551724 2 11.96551724 2 9 C1.34 9 0.68 9 0 9 C-0.33 9.66 -0.66 10.32 -1 11 C-0.67 9.68 -0.34 8.36 0 7 C0.66 7 1.32 7 2 7 C1.65555119 4.52733235 1.65555119 4.52733235 1 2 C0.34 1.67 -0.32 1.34 -1 1 C-0.67 0.67 -0.34 0.34 0 0 Z " fill="#B48429" transform="translate(78,19)"/>
<path d="M0 0 C1.65 0 3.3 0 5 0 C5 1.98 5 3.96 5 6 C8.465 7.98 8.465 7.98 12 10 C12 10.66 12 11.32 12 12 C10.02 12.99 10.02 12.99 8 14 C8.33 15.32 8.66 16.64 9 18 C7.35 18.33 5.7 18.66 4 19 C4.33 17.35 4.66 15.7 5 14 C3.35 14 1.7 14 0 14 C0 13.67 0 13.34 0 13 C2.97 12.34 5.94 11.68 9 11 C7.88625 10.38125 6.7725 9.7625 5.625 9.125 C3.36093785 7.86718769 1.85384858 6.85384858 0 5 C-0.125 2.375 -0.125 2.375 0 0 Z " fill="#726E69" transform="translate(41,76)"/>
<path d="M0 0 C1.65 0.33 3.3 0.66 5 1 C5 4.63 5 8.26 5 12 C4.34 12 3.68 12 3 12 C2.54625 11.525625 2.0925 11.05125 1.625 10.5625 C-0.22977487 8.77906263 -1.50135592 8.4308007 -4 8 C-3.34 7.34 -2.68 6.68 -2 6 C-1.63557767 4.33985384 -1.30027117 2.67293936 -1 1 C-0.67 0.67 -0.34 0.34 0 0 Z " fill="#515151" transform="translate(56,60)"/>
<path d="M0 0 C0 2.31 0 4.62 0 7 C1.98 7 3.96 7 6 7 C5.67 8.32 5.34 9.64 5 11 C3.68 10.67 2.36 10.34 1 10 C1 10.66 1 11.32 1 12 C-0.875 11.6875 -0.875 11.6875 -3 11 C-5 8 -5 8 -4.75 4.375 C-4.5025 3.26125 -4.255 2.1475 -4 1 C-2 0 -2 0 0 0 Z " fill="#F9D56B" transform="translate(53,22)"/>
<path d="M0 0 C2.9375 0.75 2.9375 0.75 4.9375 2.75 C4.5625 4.875 4.5625 4.875 3.9375 6.75 C2.08125 6.4715625 2.08125 6.4715625 0.1875 6.1875 C-2.82529577 5.80288777 -5.16260827 5.6625406 -8.0625 6.75 C-6.49508457 2.16832413 -5.35286038 -0.43696819 0 0 Z " fill="#E0C7A0" transform="translate(10.0625,48.25)"/>
<path d="M0 0 C2.97 0 5.94 0 9 0 C9 2.31 9 4.62 9 7 C6.69 7.33 4.38 7.66 2 8 C1.34 5.36 0.68 2.72 0 0 Z " fill="#88AFB6" transform="translate(60,55)"/>
<path d="M0 0 C0.99 0.99 1.98 1.98 3 3 C2.34 5.31 1.68 7.62 1 10 C2.65 10 4.3 10 6 10 C6 10.33 6 10.66 6 11 C4.35 11 2.7 11 1 11 C0.67 11.99 0.34 12.98 0 14 C-0.99 13.67 -1.98 13.34 -3 13 C-3.31563182 7.73946963 -2.66590937 4.55426184 0 0 Z " fill="#545555" transform="translate(44,97)"/>
<path d="M0 0 C0.66 0 1.32 0 2 0 C2 4.62 2 9.24 2 14 C0.35 14.66 -1.3 15.32 -3 16 C-3.33 15.01 -3.66 14.02 -4 13 C-3.67 12.34 -3.34 11.68 -3 11 C-2.34 11 -1.68 11 -1 11 C-0.67 7.37 -0.34 3.74 0 0 Z " fill="#4D565E" transform="translate(79,91)"/>
<path d="M0 0 C1 3 1 3 0.328125 4.9375 C-0.02765625 5.618125 -0.3834375 6.29875 -0.75 7 C-1.09546875 7.680625 -1.4409375 8.36125 -1.796875 9.0625 C-3.02489513 11.04009086 -4.2206256 12.50157945 -6 14 C-6.66 14 -7.32 14 -8 14 C-7.52353853 8.99715458 -6.06711438 5.96920685 -3 2 C-2.01 1.34 -1.02 0.68 0 0 Z " fill="#F5CD5F" transform="translate(67,21)"/>
<path d="M0 0 C0.66 0.33 1.32 0.66 2 1 C2.625 3.0625 2.625 3.0625 3 5 C3.99 5 4.98 5 6 5 C5.67 6.32 5.34 7.64 5 9 C4.34 9 3.68 9 3 9 C4.32 10.65 5.64 12.3 7 14 C5.68 14 4.36 14 3 14 C1.96986723 12.35178756 0.96885372 10.68496298 0 9 C-0.99 9 -1.98 9 -3 9 C-2.01 6.03 -1.02 3.06 0 0 Z " fill="#A3711D" transform="translate(68,21)"/>
<path d="M0 0 C0.66 0.33 1.32 0.66 2 1 C2.625 3.0625 2.625 3.0625 3 5 C3.99 5 4.98 5 6 5 C5.67 6.32 5.34 7.64 5 9 C4.34 9 3.68 9 3 9 C4.32 10.65 5.64 12.3 7 14 C5.68 14 4.36 14 3 14 C1.96986723 12.35178756 0.96885372 10.68496298 0 9 C-0.99 9 -1.98 9 -3 9 C-2.01 6.03 -1.02 3.06 0 0 Z " fill="#A3711D" transform="translate(30,21)"/>
<path d="M0 0 C2.64 1.32 5.28 2.64 8 4 C7.67 4.66 7.34 5.32 7 6 C4.49609375 6.6328125 4.49609375 6.6328125 1.4375 7.125 C-0.08037109 7.37636719 -0.08037109 7.37636719 -1.62890625 7.6328125 C-2.80259766 7.81457031 -2.80259766 7.81457031 -4 8 C-2.68 5.36 -1.36 2.72 0 0 Z " fill="#A69E90" transform="translate(43,82)"/>
<path d="M0 0 C0 2.31 0 4.62 0 7 C-2.97 7.66 -5.94 8.32 -9 9 C-7.94460224 4.77840895 -7.19804773 3.72774659 -4 1 C-1 0 -1 0 0 0 Z " fill="#B6AD9E" transform="translate(51,51)"/>
<path d="M0 0 C0.66 0 1.32 0 2 0 C2.33 1.65 2.66 3.3 3 5 C2.01 5.495 2.01 5.495 1 6 C0.67 6.99 0.34 7.98 0 9 C-0.66 9 -1.32 9 -2 9 C-2 10.32 -2 11.64 -2 13 C-2.99 12.67 -3.98 12.34 -5 12 C-6.1875 9.4375 -6.1875 9.4375 -7 7 C-6.01 7.33 -5.02 7.66 -4 8 C-3.67 7.01 -3.34 6.02 -3 5 C-2.34 5 -1.68 5 -1 5 C-0.67 3.35 -0.34 1.7 0 0 Z " fill="#F7D168" transform="translate(77,21)"/>
<path d="M0 0 C0.66 0 1.32 0 2 0 C2.33 1.65 2.66 3.3 3 5 C2.01 5.495 2.01 5.495 1 6 C0.67 6.99 0.34 7.98 0 9 C-0.66 9 -1.32 9 -2 9 C-2 10.32 -2 11.64 -2 13 C-2.99 12.67 -3.98 12.34 -5 12 C-6.1875 9.4375 -6.1875 9.4375 -7 7 C-6.01 7.33 -5.02 7.66 -4 8 C-3.67 7.01 -3.34 6.02 -3 5 C-2.34 5 -1.68 5 -1 5 C-0.67 3.35 -0.34 1.7 0 0 Z " fill="#F7D168" transform="translate(39,21)"/>
<path d="M0 0 C0.86625 1.11375 0.86625 1.11375 1.75 2.25 C3.72253526 4.66087643 5.76044282 6.84042701 8 9 C4.91190305 10.76462683 3.76687864 11 0 11 C0 7.37 0 3.74 0 0 Z " fill="#505559" transform="translate(66,99)"/>
<path d="M0 0 C1.65 1.32 3.3 2.64 5 4 C3.68 4 2.36 4 1 4 C0.67 7.63 0.34 11.26 0 15 C-0.66 15 -1.32 15 -2 15 C-2 16.98 -2 18.96 -2 21 C-2.99 20.67 -3.98 20.34 -5 20 C-3.33333333 13.33333333 -1.66666667 6.66666667 0 0 Z " fill="#A19D93" transform="translate(78,87)"/>
<path d="M0 0 C1 3 1 3 0.328125 4.9375 C-0.02765625 5.618125 -0.3834375 6.29875 -0.75 7 C-1.09546875 7.680625 -1.4409375 8.36125 -1.796875 9.0625 C-3.02489513 11.04009086 -4.2206256 12.50157945 -6 14 C-6.66 14 -7.32 14 -8 14 C-8 12.68 -8 11.36 -8 10 C-7.34 10 -6.68 10 -6 10 C-5.7525 9.0925 -5.505 8.185 -5.25 7.25 C-3.96018658 3.89648511 -2.68028958 2.32291764 0 0 Z " fill="#F7D063" transform="translate(29,21)"/>
<path d="M0 0 C1.125 3.75 1.125 3.75 0 6 C2.64 6 5.28 6 8 6 C7.34 7.65 6.68 9.3 6 11 C5.67 10.34 5.34 9.68 5 9 C3.02 9 1.04 9 -1 9 C-2.125 4.25 -2.125 4.25 -1 2 C-2.32 2.33 -3.64 2.66 -5 3 C-2.25 0 -2.25 0 0 0 Z " fill="#906216" transform="translate(54,20)"/>
<path d="M0 0 C2.475 0.99 2.475 0.99 5 2 C5.33 1.34 5.66 0.68 6 0 C7 1 7 1 7.25 3.9375 C7.1675 4.948125 7.085 5.95875 7 7 C6.01 7.66 5.02 8.32 4 9 C0 4.5 0 4.5 0 0 Z " fill="#5B6368" transform="translate(68,96)"/>
<path d="M0 0 C1.65 0 3.3 0 5 0 C4.34 3.3 3.68 6.6 3 10 C2.34 9.01 1.68 8.02 1 7 C0.34 7.99 -0.32 8.98 -1 10 C-1.125 2.25 -1.125 2.25 0 0 Z " fill="#474C50" transform="translate(77,37)"/>
<path d="M0 0 C0.97674523 3.09748658 1.05539128 3.84921262 -0.125 7.0625 C-2.14759986 10.23123978 -3.66315591 11.37435801 -7 13 C-7.99 13.495 -7.99 13.495 -9 14 C-7.45158425 10.65291949 -5.50894136 7.75332488 -3.375 4.75 C-2.74335937 3.85796875 -2.11171875 2.9659375 -1.4609375 2.046875 C-0.73777344 1.03367187 -0.73777344 1.03367187 0 0 Z " fill="#C3BAA9" transform="translate(41,81)"/>
<path d="M0 0 C2 1 2 1 2.875 2.8125 C3.92335678 5.16266802 3.92335678 5.16266802 6.1875 7 C7.0846875 7.99 7.0846875 7.99 8 9 C7.75 11.25 7.75 11.25 7 13 C6.67 12.01 6.34 11.02 6 10 C4.37051936 8.77554716 4.37051936 8.77554716 2.4375 7.8125 C1.303125 7.214375 0.16875 6.61625 -1 6 C-1.042721 4.33388095 -1.04063832 2.66617115 -1 1 C-0.67 0.67 -0.34 0.34 0 0 Z " fill="#C2B9A8" transform="translate(46,76)"/>
<path d="M0 0 C2 1 2 1 2.8515625 3.06640625 C3.10679688 3.89011719 3.36203125 4.71382812 3.625 5.5625 C3.88539062 6.38878906 4.14578125 7.21507812 4.4140625 8.06640625 C4.60742188 8.70449219 4.80078125 9.34257813 5 10 C4.01 10 3.02 10 2 10 C1.67 11.65 1.34 13.3 1 15 C0.67 15 0.34 15 0 15 C0 10.05 0 5.1 0 0 Z " fill="#918A7E" transform="translate(54,48)"/>
<path d="M0 0 C0.99 0.33 1.98 0.66 3 1 C3 2.66666667 3 4.33333333 3 6 C0.36 6.33 -2.28 6.66 -5 7 C-3.47793991 4.37098712 -2.15634036 2.15634036 0 0 Z " fill="#847F76" transform="translate(36,91)"/>
<path d="M0 0 C0.66 0 1.32 0 2 0 C2.2475 0.86625 2.495 1.7325 2.75 2.625 C4.06778613 6.18302254 5.80186822 8.9226155 8 12 C7.67 12.66 7.34 13.32 7 14 C2.78418231 11.11549316 1.14431274 8.99336468 0 4 C0 2.68 0 1.36 0 0 Z " fill="#C3BAA9" transform="translate(65,75)"/>
<path d="M0 0 C2.35119399 3.52679099 2.21443452 5.02879485 2.125 9.1875 C2.10695313 10.27417969 2.08890625 11.36085938 2.0703125 12.48046875 C2.03550781 13.72763672 2.03550781 13.72763672 2 15 C-0.34240025 12.65759975 -0.36283032 11.82911717 -0.6875 8.625 C-0.77386719 7.85414062 -0.86023438 7.08328125 -0.94921875 6.2890625 C-1.00027694 3.98751626 -0.66593825 2.19308988 0 0 Z " fill="#4C555D" transform="translate(78,74)"/>
<path d="M0 0 C-0.66 3.3 -1.32 6.6 -2 10 C-4.12508244 6.81237635 -4.5020163 4.73487777 -5 1 C-3 0 -3 0 0 0 Z " fill="#48515A" transform="translate(78,90)"/>
<path d="M0 0 C0.33 0 0.66 0 1 0 C1.33 4.95 1.66 9.9 2 15 C1.01 15.66 0.02 16.32 -1 17 C-2.32528788 10.90367577 -1.46619907 6.02232181 0 0 Z " fill="#C3BAA9" transform="translate(69,54)"/>
<path d="M0 0 C2.475 0.99 2.475 0.99 5 2 C5.33 1.34 5.66 0.68 6 0 C6 1.32 6 2.64 6 4 C6.66 4.33 7.32 4.66 8 5 C6.741875 5.020625 5.48375 5.04125 4.1875 5.0625 C3.47980469 5.07410156 2.77210937 5.08570313 2.04296875 5.09765625 C0 5 0 5 -3 4 C-2.67 3.34 -2.34 2.68 -2 2 C-1.34 2 -0.68 2 0 2 C0 1.34 0 0.68 0 0 Z " fill="#82540F" transform="translate(53,31)"/>
<path d="M0 0 C0.33 0 0.66 0 1 0 C1.22331199 1.58129029 1.42804644 3.16521089 1.625 4.75 C1.74101563 5.63171875 1.85703125 6.5134375 1.9765625 7.421875 C2.00207817 10.22859878 1.44843844 11.63384866 0 14 C-1.09321611 9.49048355 -2.13999677 4.27999354 0 0 Z " fill="#A79E91" transform="translate(67,66)"/>
<path d="M0 0 C0.33 0.99 0.66 1.98 1 3 C-0.65 4.32 -2.3 5.64 -4 7 C-4 6.34 -4 5.68 -4 5 C-4.99 4.67 -5.98 4.34 -7 4 C-6 2 -6 2 -2.9375 0.875 C-1.4834375 0.441875 -1.4834375 0.441875 0 0 Z " fill="#62696D" transform="translate(78,65)"/>
<path d="M0 0 C1.2065625 0.0309375 1.2065625 0.0309375 2.4375 0.0625 C2.4375 1.0525 2.4375 2.0425 2.4375 3.0625 C1.1175 3.3925 -0.2025 3.7225 -1.5625 4.0625 C-1.5625 5.0525 -1.5625 6.0425 -1.5625 7.0625 C-2.2225 7.0625 -2.8825 7.0625 -3.5625 7.0625 C-3.60504356 5.06295254 -3.60330783 3.06208364 -3.5625 1.0625 C-2.5625 0.0625 -2.5625 0.0625 0 0 Z " fill="#404040" transform="translate(48.5625,59.9375)"/>
<path d="M0 0 C2 3 2 3 2.9375 5 C4.04407247 7.08295994 5.26406866 8.4218806 7 10 C2.25 9.125 2.25 9.125 0 8 C0 5.36 0 2.72 0 0 Z " fill="#6C6860" transform="translate(65,79)"/>
<path d="M0 0 C0.99 0 1.98 0 3 0 C2.67 1.32 2.34 2.64 2 4 C-0.3125 4.6875 -0.3125 4.6875 -3 5 C-4.8125 3.5625 -4.8125 3.5625 -6 2 C-4.35 2 -2.7 2 -1 2 C-0.67 1.34 -0.34 0.68 0 0 Z " fill="#48515A" transform="translate(76,68)"/>
<path d="M0 0 C2.97 0 5.94 0 9 0 C8.67 1.32 8.34 2.64 8 4 C5.125 3.6875 5.125 3.6875 2 3 C1.34 2.01 0.68 1.02 0 0 Z " fill="#8FB4BA" transform="translate(34,56)"/>
<path d="M0 0 C0.66 0 1.32 0 2 0 C2.433125 0.9590625 2.433125 0.9590625 2.875 1.9375 C3.82823451 4.15206079 3.82823451 4.15206079 6 5 C6 5.99 6 6.98 6 8 C4.68 8 3.36 8 2 8 C1.34 5.36 0.68 2.72 0 0 Z " fill="#D1A13A" transform="translate(44,28)"/>
<path d="M0 0 C2.31 0 4.62 0 7 0 C6.67 1.32 6.34 2.64 6 4 C3.83125748 3.49396008 2.00032373 3.00016187 0 2 C0 1.34 0 0.68 0 0 Z " fill="#89A9AA" transform="translate(52,29)"/>
<path d="M0 0 C0.66 0 1.32 0 2 0 C2.33 1.65 2.66 3.3 3 5 C1.35 5.66 -0.3 6.32 -2 7 C-1.34 4.69 -0.68 2.38 0 0 Z " fill="#FDDC75" transform="translate(77,21)"/>
<path d="M0 0 C0.66 0 1.32 0 2 0 C2.33 1.65 2.66 3.3 3 5 C1.35 5.66 -0.3 6.32 -2 7 C-1.34 4.69 -0.68 2.38 0 0 Z " fill="#FDDC75" transform="translate(39,21)"/>
<path d="M0 0 C1.65 0 3.3 0 5 0 C5.33 1.32 5.66 2.64 6 4 C4.02 4.33 2.04 4.66 0 5 C0 4.34 0 3.68 0 3 C0.99 2.67 1.98 2.34 3 2 C2.01 1.34 1.02 0.68 0 0 Z " fill="#76726C" transform="translate(47,61)"/>
<path d="M0 0 C1.58502671 3.17005342 1.60385067 6.49124878 2 10 C-0.47128202 9.0433747 -1.72986449 8.54027102 -2.9375 6.125 C-3.0225942 3.23179718 -1.88243538 2.10832763 0 0 Z " fill="#87540E" transform="translate(48,23)"/>
<path d="M0 0 C1.32 0 2.64 0 4 0 C3.34 1.98 2.68 3.96 2 6 C0.35 6 -1.3 6 -3 6 C-1.68 5.67 -0.36 5.34 1 5 C1 4.34 1 3.68 1 3 C0.34 2.34 -0.32 1.68 -1 1 C-0.67 0.67 -0.34 0.34 0 0 Z " fill="#A29A8D" transform="translate(42,90)"/>
<path d="M0 0 C2.5 2.25 2.5 2.25 5 5 C5 6.32 5 7.64 5 9 C3.68 8.67 2.36 8.34 1 8 C1.66 7.34 2.32 6.68 3 6 C2.2575 5.071875 2.2575 5.071875 1.5 4.125 C0 2 0 2 0 0 Z " fill="#8D5C12" transform="translate(83,27)"/>
<path d="M0 0 C1.98 0.99 1.98 0.99 4 2 C3.67 3.65 3.34 5.3 3 7 C1.5 5.75 1.5 5.75 0 4 C0 2.68 0 1.36 0 0 Z " fill="#857D72" transform="translate(68,96)"/>
<path d="M0 0 C1.10844919 3.32534757 0.84454356 5.62182575 0 9 C-0.99 8.34 -1.98 7.68 -3 7 C-2.38722388 4.03824877 -1.74627478 2.61941217 0 0 Z " fill="#BFB6A5" transform="translate(57,78)"/>
<path d="M0 0 C0.99 0.33 1.98 0.66 3 1 C3 2.65 3 4.3 3 6 C2.01 6.495 2.01 6.495 1 7 C0.67 4.69 0.34 2.38 0 0 Z " fill="#4F4F4F" transform="translate(41,76)"/>
<path d="M0 0 C2.475 0.495 2.475 0.495 5 1 C5 1.99 5 2.98 5 4 C3.68 4.33 2.36 4.66 1 5 C0.67 3.35 0.34 1.7 0 0 Z " fill="#778087" transform="translate(74,55)"/>
</svg>
